<svg xmlns="http://www.w3.org/2000/svg" version="1.1" xmlns:xlink="http://www.w3.org/1999/xlink" width="200" height="200"><svg xmlns="http://www.w3.org/2000/svg" version="1.1" xmlns:xlink="http://www.w3.org/1999/xlink" viewBox="0 0 200 200"><rect width="200" height="200" fill="url('#gradient')"></rect><defs><linearGradient id="SvgjsLinearGradient1001" gradientTransform="rotate(45 0.5 0.5)"><stop offset="0%" stop-color="#472027"></stop><stop offset="100%" stop-color="#192025"></stop></linearGradient></defs><g><g fill="#f3bd7d" transform="matrix(1.3344917463075587,0,0,1.3344917463075587,8.253691643864876,106.71179026960809)" stroke="#c06a3e" stroke-width="0.6"><path d="M4.73-14.22L4.73 0L1.31 0L1.31-14.22L4.73-14.22ZM6.98-10.57L10.07-10.57L10.18-9.33Q11.30-10.76 13.19-10.76L13.19-10.76Q15.20-10.76 15.90-9.17L15.90-9.17Q16.97-10.76 19.00-10.76L19.00-10.76Q22.22-10.76 22.30-6.88L22.30-6.88L22.30 0L19.00 0L19.00-6.67Q19.00-7.48 18.73-7.85Q18.46-8.22 17.73-8.22L17.73-8.22Q16.76-8.22 16.28-7.35L16.28-7.35L16.29-7.22L16.29 0L12.99 0L12.99-6.65Q12.99-7.48 12.72-7.85Q12.46-8.22 11.72-8.22L11.72-8.22Q10.77-8.22 10.27-7.35L10.27-7.35L10.27 0L6.98 0L6.98-10.57ZM33.99-5.36L33.99-5.21Q33.99-2.74 32.89-1.27Q31.78 0.20 29.89 0.20L29.89 0.20Q28.44 0.20 27.50-0.87L27.50-0.87L27.50 4.06L24.21 4.06L24.21-10.57L27.29-10.57L27.38-9.59Q28.33-10.76 29.87-10.76L29.87-10.76Q31.83-10.76 32.91-9.32Q33.99-7.88 33.99-5.36L33.99-5.36ZM30.70-5.06L30.70-5.41Q30.70-8.22 29.06-8.22L29.06-8.22Q27.89-8.22 27.50-7.38L27.50-7.38L27.50-3.22Q27.93-2.34 29.08-2.34L29.08-2.34Q30.65-2.34 30.70-5.06L30.70-5.06ZM35.04-4.82L35.03-5.38Q35.03-6.96 35.64-8.20Q36.26-9.43 37.41-10.10Q38.56-10.76 40.12-10.76L40.12-10.76Q42.49-10.76 43.86-9.29Q45.22-7.82 45.22-5.29L45.22-5.29L45.22-5.18Q45.22-2.71 43.85-1.25Q42.48 0.20 40.14 0.20L40.14 0.20Q37.88 0.20 36.51-1.16Q35.15-2.51 35.04-4.82L35.04-4.82ZM38.33-5.77L38.32-5.18Q38.32-3.71 38.78-3.03Q39.24-2.34 40.14-2.34L40.14-2.34Q41.89-2.34 41.93-5.05L41.93-5.05L41.93-5.38Q41.93-8.22 40.12-8.22L40.12-8.22Q38.47-8.22 38.33-5.77L38.33-5.77ZM52.21-2.97L52.21-2.97Q52.21-3.39 51.77-3.64Q51.33-3.90 50.10-4.17Q48.87-4.44 48.07-4.89Q47.27-5.33 46.85-5.97Q46.43-6.60 46.43-7.42L46.43-7.42Q46.43-8.88 47.63-9.82Q48.83-10.76 50.77-10.76L50.77-10.76Q52.86-10.76 54.13-9.81Q55.40-8.87 55.40-7.32L55.40-7.32L52.10-7.32Q52.10-8.59 50.76-8.59L50.76-8.59Q50.24-8.59 49.89-8.31Q49.54-8.02 49.54-7.59L49.54-7.59Q49.54-7.15 49.97-6.88Q50.40-6.60 51.34-6.43Q52.29-6.25 53.00-6.01L53.00-6.01Q55.38-5.19 55.38-3.07L55.38-3.07Q55.38-1.62 54.10-0.71Q52.81 0.20 50.77 0.20L50.77 0.20Q49.41 0.20 48.35-0.29Q47.29-0.78 46.69-1.62Q46.09-2.46 46.09-3.39L46.09-3.39L49.17-3.39Q49.19-2.66 49.66-2.32Q50.13-1.98 50.86-1.98L50.86-1.98Q51.53-1.98 51.87-2.26Q52.21-2.53 52.21-2.97ZM57.46-13.19L60.75-13.19L60.75-10.57L62.49-10.57L62.49-8.28L60.75-8.28L60.75-3.45Q60.75-2.85 60.97-2.62Q61.18-2.38 61.82-2.38L61.82-2.38Q62.30-2.38 62.64-2.44L62.64-2.44L62.64-0.09Q61.75 0.20 60.78 0.20L60.78 0.20Q59.08 0.20 58.27-0.61Q57.46-1.41 57.46-3.04L57.46-3.04L57.46-8.28L56.11-8.28L56.11-10.57L57.46-10.57L57.46-13.19ZM63.09-4.82L63.08-5.38Q63.08-6.96 63.69-8.20Q64.31-9.43 65.46-10.10Q66.61-10.76 68.16-10.76L68.16-10.76Q70.54-10.76 71.90-9.29Q73.27-7.82 73.27-5.29L73.27-5.29L73.27-5.18Q73.27-2.71 71.90-1.25Q70.53 0.20 68.18 0.20L68.18 0.20Q65.93 0.20 64.56-1.16Q63.19-2.51 63.09-4.82L63.09-4.82ZM66.38-5.77L66.37-5.18Q66.37-3.71 66.83-3.03Q67.29-2.34 68.18-2.34L68.18-2.34Q69.94-2.34 69.98-5.05L69.98-5.05L69.98-5.38Q69.98-8.22 68.16-8.22L68.16-8.22Q66.51-8.22 66.38-5.77L66.38-5.77ZM81.17-10.64L81.11-7.59L80.03-7.67Q78.48-7.67 78.04-6.69L78.04-6.69L78.04 0L74.75 0L74.75-10.57L77.83-10.57L77.94-9.21Q78.77-10.76 80.25-10.76L80.25-10.76Q80.78-10.76 81.17-10.64L81.17-10.64ZM86.89-5.24L86.89-5.36Q86.89-6.96 87.42-8.19Q87.95-9.42 88.94-10.09Q89.92-10.76 91.23-10.76L91.23-10.76Q92.88-10.76 93.81-9.65L93.81-9.65L93.93-10.57L96.91-10.57L96.91-0.40Q96.91 1.00 96.26 2.03Q95.62 3.06 94.38 3.61Q93.15 4.16 91.53 4.16L91.53 4.16Q90.37 4.16 89.28 3.72Q88.19 3.28 87.62 2.58L87.62 2.58L88.99 0.64Q89.91 1.73 91.42 1.73L91.42 1.73Q93.60 1.73 93.60-0.52L93.60-0.52L93.60-0.85Q92.66 0.20 91.21 0.20L91.21 0.20Q89.28 0.20 88.09-1.28Q86.89-2.76 86.89-5.24L86.89-5.24ZM90.20-5.16L90.20-5.16Q90.20-3.86 90.68-3.10Q91.17-2.34 92.05-2.34L92.05-2.34Q93.12-2.34 93.60-3.06L93.60-3.06L93.60-7.50Q93.13-8.22 92.07-8.22L92.07-8.22Q91.19-8.22 90.69-7.44Q90.20-6.65 90.20-5.16ZM108.03 0L104.74 0Q104.56-0.32 104.42-0.95L104.42-0.95Q103.52 0.20 101.88 0.20L101.88 0.20Q100.39 0.20 99.35-0.71Q98.30-1.61 98.30-2.98L98.30-2.98Q98.30-4.70 99.57-5.58Q100.84-6.46 103.26-6.46L103.26-6.46L104.28-6.46L104.28-7.01Q104.28-8.47 103.02-8.47L103.02-8.47Q101.85-8.47 101.85-7.31L101.85-7.31L98.55-7.31Q98.55-8.85 99.86-9.80Q101.16-10.76 103.18-10.76Q105.21-10.76 106.38-9.78Q107.55-8.79 107.58-7.07L107.58-7.07L107.58-2.39Q107.60-0.94 108.03-0.17L108.03-0.17L108.03 0ZM102.68-2.15L102.68-2.15Q103.29-2.15 103.70-2.41Q104.10-2.68 104.28-3.01L104.28-3.01L104.28-4.70L103.32-4.70Q101.60-4.70 101.60-3.15L101.60-3.15Q101.60-2.71 101.90-2.43Q102.21-2.15 102.68-2.15ZM109.42-10.57L112.51-10.57L112.62-9.33Q113.74-10.76 115.63-10.76L115.63-10.76Q117.64-10.76 118.34-9.17L118.34-9.17Q119.41-10.76 121.45-10.76L121.45-10.76Q124.66-10.76 124.75-6.88L124.75-6.88L124.75 0L121.45 0L121.45-6.67Q121.45-7.48 121.17-7.85Q120.90-8.22 120.18-8.22L120.18-8.22Q119.20-8.22 118.72-7.35L118.72-7.35L118.73-7.22L118.73 0L115.43 0L115.43-6.65Q115.43-7.48 115.17-7.85Q114.90-8.22 114.16-8.22L114.16-8.22Q113.21-8.22 112.71-7.35L112.71-7.35L112.71 0L109.42 0L109.42-10.57ZM131.74 0.20L131.74 0.20Q129.31 0.20 127.80-1.25Q126.30-2.71 126.30-5.03L126.30-5.03L126.30-5.30Q126.30-6.92 126.90-8.16Q127.50-9.40 128.65-10.08Q129.80-10.76 131.39-10.76L131.39-10.76Q133.61-10.76 134.90-9.38Q136.19-8.00 136.19-5.53L136.19-5.53L136.19-4.25L129.65-4.25Q129.82-3.36 130.42-2.85Q131.02-2.34 131.96-2.34L131.96-2.34Q133.53-2.34 134.40-3.44L134.40-3.44L135.91-1.66Q135.29-0.81 134.17-0.31Q133.04 0.20 131.74 0.20ZM131.37-8.22L131.37-8.22Q129.92-8.22 129.65-6.31L129.65-6.31L132.97-6.31L132.97-6.56Q132.99-7.35 132.57-7.79Q132.15-8.22 131.37-8.22Z"></path></g></g></svg><style>@media (prefers-color-scheme: light) { :root { filter: none; } }
@media (prefers-color-scheme: dark) { :root { filter: none; } }
</style></svg>